<?xml version="1.0" encoding="utf-8"?>
<!-- Generator: Adobe Illustrator 16.0.0, SVG Export Plug-In . SVG Version: 6.00 Build 0)  -->
<!DOCTYPE svg PUBLIC "-//W3C//DTD SVG 1.1//EN" "http://www.w3.org/Graphics/SVG/1.1/DTD/svg11.dtd">
<svg version="1.1" id="Layer_1" xmlns="http://www.w3.org/2000/svg" xmlns:xlink="http://www.w3.org/1999/xlink" x="0px" y="0px"
	 width="841.89px" height="595.28px" viewBox="0 0 841.89 595.28" enable-background="new 0 0 841.89 595.28" xml:space="preserve">
<g>
	<g>
		<radialGradient id="SVGID_1_" cx="414.2417" cy="160.0107" r="185.7063" gradientUnits="userSpaceOnUse">
			<stop  offset="0" style="stop-color:#FFFFFF"/>
			<stop  offset="0.6085" style="stop-color:#FBFBFB"/>
			<stop  offset="1" style="stop-color:#F4F4F4"/>
		</radialGradient>
		<path fill-rule="evenodd" clip-rule="evenodd" fill="url(#SVGID_1_)" d="M564.865,297.297c0,34.317,0,68.626,0,102.944
			c0.008,6.35,0.234,12.709-0.029,19.045c-0.424,10.443-9.438,20.547-19.689,22.402c-1.33,0.24-2.697,0.332-4.057,0.332
			c-79.494,0.014-158.989,0.027-238.484-0.008c-7.441,0-14.167-2.152-19.102-8.064c-4.093-4.898-6.507-10.492-6.5-17.068
			c0.036-79.375,0.113-158.75-0.077-238.132c-0.028-11.71,10.081-25.573,25.587-25.502c16.136,0.071,32.278,0.014,48.413,0.014
			c50.375,0.014,100.75,0.042,151.124,0.05c12.659,0,25.326-0.05,37.984-0.042c11.83,0.007,22.834,9.353,24.703,20.964
			c0.162,1.02,0.154,2.067,0.154,3.101c0.008,39.988,0.008,79.977,0.008,119.965C564.887,297.297,564.879,297.297,564.865,297.297z"
			/>
	</g>
	<g>
		<g>
			<g>
				<path fill="#6E6F72" d="M466.368,201.327c-0.057,0.581-0.008,1.161-0.093,1.742l-3.327,21.346
					c24.334,14.387,40.731,40.788,40.731,71.042c0,45.525-37.036,82.574-82.554,82.574c-45.532,0-82.561-37.049-82.561-82.574
					c0-11.385,2.329-22.239,6.514-32.123l-15.831-17.771c-8.093,14.861-12.702,31.846-12.702,49.893
					c0,57.652,46.913,104.572,104.58,104.572c57.66,0,104.565-46.92,104.565-104.572
					C525.691,254.023,501.399,218.241,466.368,201.327z"/>
				<path fill="#6E6F72" d="M417.02,213.101l2.704-17.29c0.255-1.72,0.758-3.356,1.381-4.928
					c-22.472,0.007-43.237,7.215-60.308,19.308l14.727,16.489C387.523,218.715,401.755,213.873,417.02,213.101z"/>
				<g>
					<path fill="#5EBB46" d="M456.661,185.148c-1.183-4.418-4.843-7.944-9.664-8.708c-0.56-0.078-1.098-0.106-1.636-0.106
						c-3.54,0-6.698,1.621-8.964,4.149c-1.451,1.678-2.626,3.575-2.98,5.912l-2.471,15.831l-13.927,88.479L365.788,233.3
						l-14.825-16.575l-3.505-3.915c-2.351-2.655-5.622-4.021-8.921-4.021c-2.811,0-5.629,0.984-7.895,3.023
						c-4.921,4.361-5.359,11.902-0.991,16.83l5.324,5.947l15.321,17.183l65.731,73.674c2.279,2.578,5.536,3.98,8.899,3.98
						c1.104,0,2.23-0.178,3.342-0.453c4.426-1.318,7.711-5.07,8.419-9.608l17.502-111.468l2.775-17.835
						C457.228,188.356,457.086,186.706,456.661,185.148z"/>
				</g>
			</g>
		</g>
	</g>
</g>
</svg>
