<?xml version="1.0" encoding="utf-8"?>
<!-- Generator: Adobe Illustrator 16.0.0, SVG Export Plug-In . SVG Version: 6.00 Build 0)  -->
<!DOCTYPE svg PUBLIC "-//W3C//DTD SVG 1.1//EN" "http://www.w3.org/Graphics/SVG/1.1/DTD/svg11.dtd">
<svg version="1.1" id="Layer_1" xmlns="http://www.w3.org/2000/svg" xmlns:xlink="http://www.w3.org/1999/xlink" x="0px" y="0px"
	 width="841.89px" height="595.28px" viewBox="0 0 841.89 595.28" enable-background="new 0 0 841.89 595.28" xml:space="preserve">
<g>
	<g>
		<radialGradient id="SVGID_1_" cx="418.3608" cy="152.8174" r="218.9962" gradientUnits="userSpaceOnUse">
			<stop  offset="0" style="stop-color:#FFFFFF"/>
			<stop  offset="0.6085" style="stop-color:#FBFBFB"/>
			<stop  offset="1" style="stop-color:#F4F4F4"/>
		</radialGradient>
		<path fill-rule="evenodd" clip-rule="evenodd" fill="url(#SVGID_1_)" d="M420.875,441.843c-19.215,0-38.431,0.028-57.646-0.013
			c-7.851-0.017-15.701-0.135-23.532-0.807c-6.186-0.53-12.299-1.487-18.293-3.132c-7.191-1.973-13.653-5.418-19.533-9.95
			c-9.154-7.055-15.822-16-19.907-26.818c-1.595-4.222-2.505-8.638-3.251-13.085c-1.592-9.49-1.887-19.074-1.898-28.66
			c-0.051-40.373-0.049-80.745-0.008-121.118c0.006-6.154,0.209-12.313,0.523-18.459c0.346-6.732,1.296-13.392,2.912-19.955
			c1.899-7.706,5.371-14.638,10.146-20.926c7.097-9.35,16.146-16.14,27.132-20.284c4.3-1.622,8.803-2.542,13.333-3.282
			c9.864-1.61,19.821-1.847,29.78-1.862c37.563-0.056,75.125-0.087,112.687-0.048c8.303,0.009,16.608,0.24,24.906,0.562
			c6.819,0.265,13.565,1.236,20.214,2.847c8.551,2.072,16.142,6.041,22.927,11.571c8.516,6.939,14.743,15.567,18.592,25.858
			c1.565,4.186,2.475,8.562,3.21,12.968c1.59,9.532,1.886,19.157,1.899,28.786c0.056,39.546,0.061,79.092,0.021,118.637
			c-0.007,6.898-0.195,13.802-0.534,20.69c-0.396,8.064-1.543,16.042-3.962,23.775c-1.955,6.25-5.074,11.925-9.022,17.133
			c-7.119,9.389-16.184,16.218-27.209,20.379c-4.262,1.609-8.723,2.525-13.21,3.266c-9.164,1.512-18.415,1.829-27.674,1.854
			c-20.867,0.059-41.734,0.019-62.603,0.019C420.875,441.807,420.875,441.824,420.875,441.843z"/>
	</g>
	<g>
		<g>
			<g>
				<g>
					<path fill="#6E6F72" d="M466.218,201.144c-0.057,0.581-0.008,1.161-0.093,1.742l-3.327,21.346
						c24.334,14.387,40.731,40.788,40.731,71.042c0,45.524-37.036,82.574-82.554,82.574c-45.532,0-82.561-37.05-82.561-82.574
						c0-11.385,2.329-22.239,6.514-32.123l-15.831-17.771c-8.092,14.861-12.701,31.846-12.701,49.894
						c0,57.652,46.912,104.572,104.579,104.572c57.661,0,104.566-46.92,104.566-104.572
						C525.541,253.84,501.249,218.058,466.218,201.144z"/>
					<path fill="#6E6F72" d="M416.869,212.917l2.705-17.29c0.254-1.72,0.758-3.356,1.381-4.928
						c-22.473,0.007-43.238,7.215-60.309,19.308l14.727,16.489C387.373,218.532,401.604,213.689,416.869,212.917z"/>
					<g>
						<path fill="#5EBB46" d="M456.511,184.965c-1.183-4.418-4.843-7.944-9.664-8.708c-0.56-0.078-1.098-0.106-1.636-0.106
							c-3.54,0-6.698,1.621-8.964,4.149c-1.451,1.678-2.626,3.575-2.98,5.912l-2.471,15.831l-13.927,88.479l-51.23-57.404
							l-14.826-16.575l-3.505-3.915c-2.351-2.655-5.622-4.021-8.921-4.021c-2.811,0-5.629,0.984-7.895,3.023
							c-4.92,4.361-5.359,11.902-0.99,16.83l5.324,5.947l15.32,17.183l65.731,73.675c2.28,2.577,5.536,3.979,8.9,3.979
							c1.104,0,2.23-0.177,3.342-0.453c4.426-1.317,7.711-5.069,8.419-9.607l17.502-111.469l2.775-17.835
							C457.077,188.173,456.936,186.523,456.511,184.965z"/>
					</g>
				</g>
			</g>
		</g>
	</g>
</g>
</svg>
