<?xml version="1.0" encoding="utf-8"?>
<!-- Generator: Adobe Illustrator 16.0.0, SVG Export Plug-In . SVG Version: 6.00 Build 0)  -->
<!DOCTYPE svg PUBLIC "-//W3C//DTD SVG 1.1//EN" "http://www.w3.org/Graphics/SVG/1.1/DTD/svg11.dtd">
<svg version="1.1" id="Layer_1" xmlns="http://www.w3.org/2000/svg" xmlns:xlink="http://www.w3.org/1999/xlink" x="0px" y="0px"
	 width="841.89px" height="595.28px" viewBox="0 0 841.89 595.28" enable-background="new 0 0 841.89 595.28" xml:space="preserve">
<g>
	<path fill="#FFFFFF" d="M454.641,205.387c0.249-1.604,0.113-3.155-0.28-4.617c-1.113-4.16-4.562-7.472-9.089-8.189
		c-0.519-0.074-1.029-0.105-1.54-0.105c-3.317,0-6.299,1.53-8.429,3.909c-1.362,1.572-2.463,3.359-2.806,5.555l-2.321,14.882
		l-13.08,83.201l-48.189-53.978L354.98,230.46l-3.299-3.689c-2.208-2.488-5.281-3.777-8.384-3.777c-2.641,0-5.292,0.927-7.423,2.845
		c-4.635,4.104-5.04,11.193-0.933,15.825l5.005,5.586l14.407,16.16l61.799,69.269c2.148,2.415,5.211,3.736,8.365,3.736
		c1.04,0,2.102-0.157,3.152-0.425c4.157-1.227,7.236-4.764,7.915-9.028l16.45-104.812L454.641,205.387z"/>
	<path fill="#FFFFFF" d="M384.917,231.749l2.491,2.793c6.026-2.882,12.477-5.01,19.239-6.268l2.321-14.761l1.04-6.671
		c-13.229,1.494-25.642,5.628-36.762,11.854L384.917,231.749z"/>
	<path fill="#FFFFFF" d="M473.812,221.804l-0.571,3.673l-3.019,19.236c17.271,14.231,28.347,35.689,28.347,59.768
		c0,42.801-34.823,77.647-77.618,77.647c-42.809,0-77.623-34.847-77.623-77.647c0-6.408,0.867-12.607,2.339-18.565l-7.333-8.222
		l-8.662-9.715c-4.537,11.298-7.05,23.611-7.05,36.502c0,54.209,44.105,98.325,98.329,98.325c54.213,0,98.318-44.116,98.318-98.325
		C519.269,269.75,501.094,239.279,473.812,221.804z"/>
</g>
</svg>
