<?xml version="1.0" encoding="utf-8"?>
<!-- Generator: Adobe Illustrator 16.0.0, SVG Export Plug-In . SVG Version: 6.00 Build 0)  -->
<!DOCTYPE svg PUBLIC "-//W3C//DTD SVG 1.1//EN" "http://www.w3.org/Graphics/SVG/1.1/DTD/svg11.dtd">
<svg version="1.1" id="Layer_1" xmlns="http://www.w3.org/2000/svg" xmlns:xlink="http://www.w3.org/1999/xlink" x="0px" y="0px"
	 width="841.89px" height="595.28px" viewBox="0 0 841.89 595.28" enable-background="new 0 0 841.89 595.28" xml:space="preserve">
<g>
	<path fill="#FFFFFF" d="M454.806,204.938c0.25-1.611,0.112-3.17-0.281-4.639c-1.119-4.181-4.584-7.508-9.133-8.23
		c-0.521-0.073-1.035-0.105-1.548-0.105c-3.334,0-6.33,1.537-8.47,3.927c-1.369,1.58-2.475,3.375-2.82,5.582l-2.332,14.955
		l-13.144,83.606l-48.424-54.241l-13.992-15.659l-3.315-3.708c-2.219-2.501-5.308-3.796-8.424-3.796
		c-2.654,0-5.318,0.932-7.459,2.859c-4.657,4.124-5.065,11.247-0.938,15.902l5.028,5.613l14.478,16.239l62.099,69.604
		c2.158,2.427,5.236,3.755,8.406,3.755c1.045,0,2.111-0.158,3.167-0.428c4.178-1.231,7.271-4.786,7.953-9.071l16.53-105.321
		L454.806,204.938z"/>
	<g>
		<path fill="#FFFFFF" d="M408.911,213.105l1.054-6.75c-13.332,1.479-25.852,5.607-37.042,11.847l11.82,13.227l18.1,20.276
			L408.911,213.105z"/>
		<path fill="#FFFFFF" d="M474.087,221.314l-0.591,3.813l-16.539,105.368c-1.983,12.452-11.068,22.804-23.152,26.369l-0.39,0.116
			l-0.393,0.1c-2.849,0.722-5.705,1.09-8.485,1.09c-9.372,0-18.311-4.007-24.501-10.963l-62.103-69.609l-8.683-9.742
			c-4.539,11.348-7.106,23.695-7.106,36.659c0,54.566,44.235,98.801,98.802,98.801c54.565,0,98.799-44.234,98.799-98.801
			C519.745,269.53,501.517,238.87,474.087,221.314z"/>
	</g>
</g>
</svg>
